<!DOCTYPE svg PUBLIC "-//W3C//DTD SVG 1.1//EN" "http://www.w3.org/Graphics/SVG/1.1/DTD/svg11.dtd">
<!-- Uploaded to: SVG Repo, www.svgrepo.com, Transformed by: SVG Repo Mixer Tools -->
<svg fill="#0F172A" version="1.1" id="Capa_1" xmlns="http://www.w3.org/2000/svg" xmlns:xlink="http://www.w3.org/1999/xlink" width="800px" height="800px" viewBox="-48.32 -48.32 579.87 579.87" xml:space="preserve" transform="rotate(180)matrix(-1, 0, 0, -1, 0, 0)" stroke="#0F172A" stroke-width="0.00483229">
<g id="SVGRepo_bgCarrier" stroke-width="0">
<path transform="translate(-48.32, -48.32), scale(18.1209375)" d="M16,28.04410671442747C18.005149701321585,27.349421264551424,18.496781829633534,24.566919678433237,20.36457987409085,23.559674095617925C22.32210397906968,22.504042029910686,25.008694466083387,23.56408423972347,26.786225037931068,22.227429929189384C28.740071464083474,20.75819092480841,31.048387198543516,18.361867465837417,30.417704090476036,16C29.72193907397671,13.394404994652614,25.529785920935296,13.588496002047023,23.90468018951725,11.436230764724316C22.582025026346393,9.684526445661929,24.228973580268214,6.123224016970942,22.24733844865114,5.179292394857706C20.18819749487767,4.198441667272412,18.273554222910665,7.852798539278258,16,7.670917224138975C13.392913057224018,7.462353734842692,11.458139552141112,2.905808958073658,9.147621602751318,4.131332463277882C6.883677546607013,5.332152675908121,9.540285832292732,9.32540040917581,8.481155407380289,11.658993050456044C7.582384880135248,13.63926312791319,3.795364912178243,13.825587747423324,3.760877288877964,15.999999999999998C3.7266377887177975,18.158768321671033,7.373647993429427,18.491633378166693,8.342180280104131,20.421244276687496C9.408166423945882,22.545012899715406,7.768686039125049,25.663626321339915,9.452811218798153,27.340063615786534C11.035404456086335,28.915432452350032,13.890018749261188,28.775111124439064,16,28.04410671442747" fill="#7ed0ec" strokewidth="0"/>
</g>
<g id="SVGRepo_tracerCarrier" stroke-linecap="round" stroke-linejoin="round"/>
<g id="SVGRepo_iconCarrier"> <g> <path d="M184.824,159.112L84.293,58.582C126.683,22.104,181.792,0,242.104,0c126.567,0,230.391,97.138,241.124,220.921H340.714 c-9.734-45.534-50.164-79.695-98.609-79.695C220.812,141.226,201.099,147.852,184.824,159.112z M141.226,242.104 c0-19.077,5.399-36.859,14.593-52.076L54.666,88.889C20.507,130.628,0,183.964,0,242.104c0,126.567,97.138,230.378,220.921,241.124 V340.714C175.387,330.979,141.226,290.543,141.226,242.104z M263.289,340.714v142.515 c116.797-10.131,209.809-103.148,219.939-219.939H340.714C332.439,301.992,301.993,332.439,263.289,340.714z"/> </g> </g>
</svg>